<svg width="97" height="23" viewBox="0 0 97 23" fill="none" xmlns="http://www.w3.org/2000/svg">
<g clip-path="url(#clip0_1_453)">
<path d="M52.542 3.38409C52.5413 3.94256 52.3152 4.47731 51.9134 4.87191C51.5115 5.2665 50.9667 5.48788 50.3986 5.48788C49.8304 5.48788 49.2856 5.2665 48.8845 4.87191C48.4826 4.47731 48.2565 3.94256 48.2558 3.38409C48.2565 2.82563 48.4826 2.29016 48.8845 1.89556C49.2856 1.50097 49.8304 1.27959 50.3986 1.28031C50.9667 1.27959 51.5115 1.50097 51.9134 1.89556C52.3152 2.29016 52.5413 2.82563 52.542 3.38409ZM26.5344 23.7197L29.2613 12.5101L31.2888 19.2534C32.4973 23.2755 38.3005 23.2755 39.5098 19.2534L41.5365 12.5108L44.2628 23.7197H50.1382L45.8505 6.09378C44.8309 1.90131 38.814 1.74606 37.5712 5.8796L35.3993 13.1073L33.2259 5.88031C31.9839 1.74678 25.967 1.90203 24.9466 6.09378L20.6597 23.7197H26.5344Z" fill="#121212"/>
</g>
<defs>
<clipPath id="clip0_1_453">
<rect width="97" height="23" fill="white"/>
</clipPath>
</defs>
</svg>
